<svg width="1551" height="275" viewBox="0 0 1551 275" fill="none" xmlns="http://www.w3.org/2000/svg">
<g clip-path="url(#clip0_1048_1504)">
<rect width="1204" height="288" transform="matrix(-1 0 0 1 1294 0)" fill="url(#paint0_linear_1048_1504)"/>
<g clip-path="url(#clip1_1048_1504)">
<path d="M-25.6622 307.581C-19.7079 304.316 -13.7537 300.778 -7.99184 297.361C15.1568 283.603 39.0649 269.408 69.1804 269.408C99.2959 269.408 123.204 283.603 146.403 297.361C152.155 300.778 158.109 304.316 164.074 307.581L164.803 306.243C158.869 302.988 152.925 299.46 147.173 296.053C123.883 282.214 99.7212 267.897 69.2007 267.897C38.6801 267.897 14.5796 282.214 -8.77155 296.053C-14.5131 299.47 -20.4573 302.988 -26.3913 306.243L-25.6622 307.581Z" fill="white" fill-opacity="0.5"/>
<path d="M284.596 307.581C290.551 304.316 296.505 300.778 302.267 297.361C325.415 283.602 349.364 269.408 379.439 269.408C409.514 269.408 433.463 283.602 456.621 297.351C462.373 300.768 468.327 304.306 474.292 307.571L475.021 306.232C469.087 302.978 463.143 299.45 457.391 296.043C434.101 282.203 409.939 267.887 379.419 267.887C348.898 267.887 324.798 282.203 301.446 296.043C295.705 299.45 289.761 302.978 283.827 306.232L284.596 307.581Z" fill="white" fill-opacity="0.5"/>
<path d="M-47.1502 307.621C-33.3987 302.237 -20.4877 294.572 -8.00206 287.161C15.1567 273.463 39.0648 259.269 69.1803 259.269C99.2958 259.269 123.204 273.463 146.403 287.161C158.889 294.572 171.81 302.237 185.561 307.621L186.118 306.202C172.438 300.838 159.567 293.234 147.132 285.853C123.842 272.003 99.6806 257.697 69.1601 257.697C38.6395 257.697 14.539 272.013 -8.81215 285.853C-21.2472 293.234 -34.1278 300.869 -47.7476 306.202L-47.1502 307.621Z" fill="white" fill-opacity="0.5"/>
<path d="M263.098 307.621C276.86 302.238 289.771 294.573 302.267 287.161C325.415 273.463 349.364 259.269 379.439 259.269C409.514 259.269 433.463 273.463 456.621 287.212C469.026 294.522 481.856 302.136 495.516 307.51L496.063 306.1C482.524 300.767 469.735 293.184 457.391 285.823C434.101 271.973 409.939 257.667 379.419 257.667C348.898 257.667 324.798 271.983 301.446 285.823C289.011 293.204 276.131 300.838 262.511 306.171L263.098 307.621Z" fill="white" fill-opacity="0.5"/>
<path d="M224.315 305.117C254.815 305.117 278.936 290.801 302.287 276.962C325.436 263.223 349.384 249.009 379.459 249.009C409.534 249.009 433.483 263.203 456.642 276.962C469.026 284.322 481.856 291.937 495.516 297.31L496.063 295.891C482.524 290.568 469.735 282.984 457.391 275.613C434.101 261.763 409.939 247.447 379.419 247.447C348.898 247.447 324.798 261.763 301.446 275.613C278.298 289.351 254.359 303.556 224.274 303.556C194.189 303.556 170.251 289.361 147.092 275.613C123.801 261.763 99.6402 247.447 69.1196 247.447V248.968C99.2047 248.968 123.143 263.163 146.302 276.921C169.694 290.801 193.814 305.117 224.315 305.117Z" fill="white" fill-opacity="0.5"/>
<path d="M224.315 294.918C254.815 294.918 278.936 280.601 302.287 266.762C325.436 253.014 349.384 238.809 379.459 238.809C409.534 238.809 433.483 253.003 456.642 266.762C469.026 274.123 481.856 281.737 495.516 287.111L496.063 285.691C482.524 280.368 469.735 272.784 457.391 265.413C434.101 251.564 409.939 237.248 379.419 237.248C348.898 237.248 324.798 251.564 301.446 265.413C278.298 279.152 254.359 293.356 224.274 293.356C194.189 293.356 170.251 279.162 147.092 265.413C123.801 251.564 99.6402 237.248 69.1196 237.248V238.768C99.2047 238.768 123.143 252.963 146.302 266.721C169.694 280.561 193.814 294.918 224.315 294.918Z" fill="white" fill-opacity="0.5"/>
<path d="M224.315 284.717C254.815 284.717 278.936 270.401 302.287 256.562C325.436 242.813 349.384 228.609 379.459 228.609C409.534 228.609 433.483 242.803 456.642 256.552C469.026 263.923 481.856 271.537 495.516 276.911L496.063 275.491C482.524 270.158 469.735 262.584 457.391 255.213C434.101 241.374 409.939 227.058 379.419 227.058C348.898 227.058 324.798 241.374 301.446 255.213C278.298 268.962 254.359 283.166 224.274 283.166C194.189 283.166 170.251 268.972 147.092 255.213C123.801 241.374 99.6402 227.058 69.1196 227.058V228.578C99.2047 228.578 123.143 242.773 146.302 256.531C169.694 270.422 193.814 284.717 224.315 284.717Z" fill="white" fill-opacity="0.5"/>
<path d="M224.315 274.477C254.815 274.477 278.936 260.161 302.287 246.311C325.436 232.573 349.384 218.369 379.459 218.369C409.534 218.369 433.483 232.563 456.642 246.311C469.026 253.713 481.856 261.297 495.516 266.701L496.063 265.291C482.524 259.958 469.735 252.374 457.391 245.014C434.101 231.174 409.939 216.858 379.419 216.858C348.898 216.858 324.798 231.174 301.446 245.014C278.298 258.752 254.359 272.967 224.274 272.967C194.189 272.967 170.251 258.772 147.092 245.014C123.801 231.174 99.6402 216.858 69.1196 216.858V218.379C99.2047 218.379 123.143 232.573 146.302 246.322C169.694 260.202 193.814 274.477 224.315 274.477Z" fill="white" fill-opacity="0.5"/>
<path d="M224.315 264.338C254.815 264.338 278.936 250.022 302.287 236.173C325.436 222.434 349.384 208.23 379.459 208.23C409.534 208.23 433.483 222.424 456.642 236.173C469.026 243.513 481.856 251.158 495.516 256.501L496.063 255.092C482.524 249.759 469.735 242.175 457.391 234.814C434.101 220.974 409.939 206.658 379.419 206.658C348.898 206.658 324.798 220.974 301.446 234.814C278.298 248.552 254.359 262.767 224.274 262.767C194.189 262.767 170.251 248.572 147.092 234.814C123.801 220.974 99.6402 206.658 69.1196 206.658V208.179C99.2047 208.179 123.143 222.373 146.302 236.122C169.694 250.002 193.814 264.338 224.315 264.338Z" fill="white" fill-opacity="0.5"/>
<path d="M224.315 254.108C254.815 254.108 278.936 239.792 302.287 225.952C325.436 212.214 349.384 198 379.459 198C409.534 198 433.483 212.194 456.642 225.952C469.026 233.313 481.856 240.928 495.516 246.301L496.063 244.892C482.524 239.559 469.735 231.975 457.391 224.614C434.101 210.764 409.939 196.448 379.419 196.448C348.898 196.448 324.798 210.764 301.446 224.614C278.298 238.352 254.359 252.557 224.274 252.557C194.189 252.557 170.251 238.362 147.092 224.614C123.801 210.764 99.6402 196.448 69.1196 196.448V197.969C99.2047 197.969 123.143 212.164 146.302 225.922C169.694 239.792 193.814 254.108 224.315 254.108Z" fill="white" fill-opacity="0.5"/>
<path d="M224.315 243.909C254.815 243.909 278.936 229.593 302.287 215.753C325.436 202.015 349.384 187.8 379.459 187.8C409.534 187.8 433.483 201.995 456.642 215.753C469.026 223.114 481.856 230.728 495.516 236.102L496.063 234.682C482.524 229.359 469.735 221.776 457.391 214.405C434.101 200.555 409.939 186.239 379.419 186.239C348.898 186.239 324.798 200.555 301.446 214.405C278.298 228.143 254.359 242.347 224.274 242.347C194.189 242.347 170.251 228.153 147.092 214.405C123.801 200.555 99.6402 186.239 69.1196 186.239V187.76C99.2047 187.76 123.143 201.954 146.302 215.713C169.694 229.593 193.814 243.909 224.315 243.909Z" fill="white" fill-opacity="0.5"/>
<path d="M224.315 233.709C254.815 233.709 278.936 219.393 302.287 205.553C325.436 191.805 349.384 177.6 379.459 177.6C409.534 177.6 433.483 191.795 456.642 205.553C469.026 212.914 481.856 220.528 495.516 225.902L496.063 224.482C482.524 219.149 469.735 211.575 457.391 204.205C434.101 190.365 409.939 176.049 379.419 176.049C348.898 176.049 324.798 190.365 301.446 204.205C278.298 217.953 254.359 232.157 224.274 232.157C194.189 232.157 170.251 217.963 147.092 204.205C123.801 190.365 99.6402 176.049 69.1196 176.049V177.57C99.2047 177.57 123.143 191.764 146.302 205.523C169.694 219.393 193.814 233.709 224.315 233.709Z" fill="white" fill-opacity="0.5"/>
<path d="M224.315 223.509C254.815 223.509 278.936 209.193 302.287 195.343C325.436 181.605 349.384 167.401 379.459 167.401C409.534 167.401 433.463 181.605 456.621 195.394C469.026 202.714 481.856 210.329 495.516 215.672L496.063 214.252C482.524 208.919 469.735 201.335 457.391 193.975C434.101 180.135 409.939 165.819 379.419 165.819C348.898 165.819 324.798 180.135 301.446 193.975C278.298 207.723 254.359 221.927 224.274 221.927C194.189 221.927 170.251 207.733 147.092 193.975C123.801 180.135 99.6402 165.819 69.1196 165.819V167.34C99.2047 167.34 123.143 181.534 146.302 195.282C169.694 209.193 193.814 223.509 224.315 223.509Z" fill="white" fill-opacity="0.5"/>
<path d="M224.315 213.309C254.815 213.309 278.936 198.993 302.287 185.143C325.436 171.405 349.384 157.201 379.459 157.201C409.534 157.201 433.483 171.395 456.642 185.143C469.026 192.504 481.856 200.119 495.516 205.533L496.063 204.123C482.524 198.79 469.735 191.206 457.391 183.846C434.101 170.006 409.939 155.69 379.419 155.69C348.898 155.69 324.798 170.006 301.446 183.846C278.298 197.584 254.359 211.799 224.274 211.799C194.189 211.799 170.251 197.604 147.092 183.846C123.801 170.006 99.6402 155.69 69.1196 155.69V157.211C99.2047 157.211 123.143 171.405 146.302 185.154C169.694 198.993 193.814 213.309 224.315 213.309Z" fill="white" fill-opacity="0.5"/>
<path d="M224.315 203.11C254.815 203.11 278.936 188.793 302.287 174.944C325.436 161.206 349.384 147.001 379.459 147.001C409.534 147.001 433.483 161.195 456.642 174.944C469.026 182.305 481.856 189.919 495.516 195.292L496.063 193.883C482.524 188.55 469.735 180.966 457.391 173.605C434.101 159.756 409.939 145.45 379.419 145.45C348.898 145.45 324.798 159.766 301.446 173.605C278.298 187.344 254.359 201.558 224.274 201.558C194.189 201.558 170.251 187.364 147.092 173.605C123.801 159.766 99.6402 145.45 69.1196 145.45V146.971C99.2047 146.971 123.143 161.165 146.302 174.913C169.694 188.793 193.814 203.11 224.315 203.11Z" fill="white" fill-opacity="0.5"/>
<path d="M224.315 192.9C254.815 192.9 278.936 178.584 302.287 164.744C325.436 151.006 349.384 136.791 379.459 136.791C409.534 136.791 433.483 150.986 456.642 164.744C469.026 172.075 481.856 179.719 495.516 185.093L496.063 183.674C482.524 178.351 469.735 170.767 457.391 163.396C434.101 149.546 409.939 135.23 379.419 135.23C348.898 135.23 324.798 149.546 301.446 163.396C278.338 177.144 254.4 191.339 224.315 191.339C194.23 191.339 170.291 177.144 147.132 163.396C123.842 149.546 99.6807 135.23 69.1601 135.23V136.751C99.2453 136.751 123.184 150.945 146.342 164.704C169.694 178.584 193.814 192.9 224.315 192.9Z" fill="white" fill-opacity="0.5"/>
<path d="M224.315 182.7C254.815 182.7 278.936 168.384 302.287 154.545C325.436 140.806 349.384 126.592 379.459 126.592C409.534 126.592 433.483 140.786 456.642 154.545C469.026 161.936 481.856 169.52 495.516 174.893L496.063 173.474C482.524 168.151 469.735 160.567 457.391 153.196C434.101 139.346 409.939 125.03 379.419 125.03C348.898 125.03 324.798 139.346 301.446 153.196C278.338 167.005 254.4 181.2 224.315 181.2C194.23 181.2 170.291 167.005 147.132 153.257C123.842 139.407 99.6807 125.091 69.1601 125.091V126.612C99.2453 126.612 123.184 140.806 146.342 154.565C169.694 168.384 193.814 182.7 224.315 182.7Z" fill="white" fill-opacity="0.5"/>
<path d="M224.315 172.5C254.815 172.5 278.936 158.184 302.287 144.334C325.436 130.596 349.384 116.392 379.459 116.392C409.534 116.392 433.483 130.586 456.642 144.334C469.026 151.705 481.856 159.32 495.516 164.693L496.063 163.274C482.524 157.941 469.735 150.367 457.391 142.996C434.101 129.156 409.939 114.84 379.419 114.84C348.898 114.84 324.798 129.156 301.446 142.996C278.298 156.744 254.359 170.949 224.274 170.949C194.189 170.949 170.251 156.755 147.092 142.996C123.801 129.156 99.6402 114.84 69.1196 114.84V116.361C99.2047 116.361 123.143 130.556 146.302 144.304C169.694 158.184 193.814 172.5 224.315 172.5Z" fill="white" fill-opacity="0.5"/>
<path d="M224.315 162.3C254.815 162.3 278.936 147.984 302.287 134.135C325.415 120.366 349.364 106.172 379.439 106.172C409.514 106.172 433.463 120.366 456.621 134.114C469.026 141.506 481.856 149.11 495.516 154.494L496.063 153.074C482.524 147.741 469.735 140.157 457.391 132.796C434.101 118.957 409.939 104.641 379.419 104.641C348.898 104.641 324.798 118.957 301.446 132.796C278.298 146.535 254.359 160.749 224.274 160.749C194.189 160.749 170.251 146.555 147.092 132.796C123.801 118.957 99.6402 104.641 69.1196 104.641V106.172C99.2047 106.172 123.143 120.366 146.302 134.114C169.694 147.984 193.814 162.3 224.315 162.3Z" fill="white" fill-opacity="0.5"/>
<path d="M224.315 152.101C254.815 152.101 278.936 137.785 302.287 123.935C325.415 110.227 349.364 96.0327 379.439 96.0327C409.514 96.0327 433.463 110.227 456.621 123.975C469.026 131.296 481.856 138.91 495.516 144.284L496.063 142.874C482.524 137.541 469.735 129.957 457.391 122.597C434.101 108.757 409.939 94.4409 379.419 94.4409C348.898 94.4409 324.798 108.757 301.446 122.597C278.298 136.335 254.359 150.55 224.274 150.55C194.189 150.55 170.251 136.355 147.092 122.597C123.801 108.757 99.6402 94.4409 69.1196 94.4409V96.0327C99.2047 96.0327 123.143 110.227 146.302 123.975C169.694 137.785 193.814 152.101 224.315 152.101Z" fill="white" fill-opacity="0.5"/>
<path d="M224.315 141.891C254.815 141.891 278.936 127.585 302.287 113.736C325.436 99.9974 349.384 85.7827 379.459 85.7827C409.534 85.7827 433.483 99.9771 456.642 113.736C469.026 121.096 481.856 128.711 495.516 134.084L496.063 132.675C482.524 127.342 469.735 119.758 457.391 112.397C434.101 98.5476 409.939 84.2314 379.419 84.2314C348.898 84.2314 324.798 98.5476 301.446 112.397C278.298 126.135 254.359 140.34 224.274 140.34C194.189 140.34 170.251 126.146 147.092 112.397C123.801 98.5476 99.6402 84.2314 69.1196 84.2314V85.7523C99.2047 85.7523 123.143 99.9467 146.302 113.705C169.694 127.585 193.814 141.891 224.315 141.891Z" fill="white" fill-opacity="0.5"/>
<path d="M224.315 131.691C254.815 131.691 278.936 117.375 302.287 103.536C325.436 89.7976 349.384 75.5829 379.459 75.5829C409.534 75.5829 433.483 89.7773 456.642 103.536C469.026 110.897 481.856 118.511 495.516 123.885L496.063 122.465C482.524 117.142 469.735 109.558 457.391 102.187C434.101 88.3376 409.939 74.0215 379.419 74.0215C348.898 74.0215 324.798 88.3376 301.446 102.187C278.298 115.926 254.359 130.13 224.274 130.13C194.189 130.13 170.251 115.936 147.092 102.187C123.801 88.3376 99.6402 74.0215 69.1196 74.0215V75.5423C99.2047 75.5423 123.143 89.7368 146.302 103.495C169.694 117.375 193.814 131.691 224.315 131.691Z" fill="white" fill-opacity="0.5"/>
<path d="M224.315 121.492C254.815 121.492 278.936 107.176 302.287 93.3361C325.436 79.5877 349.384 65.3832 379.459 65.3832C409.534 65.3832 433.483 79.5776 456.642 93.3361C469.026 100.697 481.856 108.311 495.516 113.685L496.063 112.255C482.524 106.932 469.735 99.3484 457.391 91.9775C434.101 78.1379 409.939 63.8218 379.419 63.8218C348.898 63.8218 324.798 78.1379 301.446 91.9876C278.298 105.726 254.359 119.93 224.274 119.93C194.189 119.93 170.251 105.736 147.092 91.9876C123.801 78.1379 99.6402 63.8218 69.1196 63.8218V65.3426C99.2047 65.3426 123.143 79.5371 146.302 93.2955C169.694 107.186 193.814 121.492 224.315 121.492Z" fill="white" fill-opacity="0.5"/>
<path d="M224.315 111.292C254.815 111.292 278.936 96.9757 302.287 83.1259C325.436 69.3878 349.384 55.1832 379.459 55.1832C409.534 55.1832 433.483 69.3776 456.642 83.1259C469.026 90.4969 481.856 98.1112 495.516 103.485L496.063 102.116C482.524 96.783 469.735 89.2093 457.391 81.8383C434.101 67.9987 409.939 53.6826 379.419 53.6826C348.898 53.6826 324.798 67.9987 301.446 81.8383C278.298 95.5866 254.359 109.791 224.274 109.791C194.189 109.791 170.251 95.5968 147.092 81.8383C123.801 67.9987 99.6402 53.6826 69.1196 53.6826V55.2035C99.2047 55.2035 123.143 69.3979 146.302 83.1462C169.694 96.9757 193.814 111.292 224.315 111.292Z" fill="white" fill-opacity="0.5"/>
<path d="M224.315 101.102C254.815 101.102 278.936 86.786 302.287 72.9363C325.436 59.1981 349.384 44.9935 379.459 44.9935C409.534 44.9935 433.483 59.188 456.642 72.9363C469.026 80.287 481.856 87.9216 495.516 93.2749L496.063 91.8656C482.524 86.5325 469.735 78.9487 457.391 71.5878C434.101 57.7482 409.939 43.4321 379.419 43.4321C348.898 43.4321 324.798 57.7482 301.446 71.5878C278.298 85.326 254.359 99.5407 224.274 99.5407C194.189 99.5407 170.251 85.3463 147.092 71.5878C123.801 57.7482 99.6402 43.4321 69.1196 43.4321V44.953C99.2047 44.953 123.143 59.1474 146.302 72.8957C169.694 86.7759 193.814 101.102 224.315 101.102Z" fill="white" fill-opacity="0.5"/>
<path d="M224.315 90.8923C254.815 90.8923 278.936 76.5762 302.287 62.7264C325.436 48.9883 349.384 34.7837 379.459 34.7837C409.534 34.7837 433.483 48.9781 456.642 62.7264C469.026 70.0873 481.856 77.7016 495.516 83.0752L496.063 81.6659C482.524 76.3328 469.735 68.7489 457.391 61.3881C434.101 47.5485 409.939 33.2324 379.419 33.2324C348.898 33.2324 324.798 47.5485 301.446 61.3881C278.298 75.1263 254.359 89.341 224.274 89.341C194.189 89.341 170.251 75.1466 147.092 61.3881C123.801 47.5485 99.6402 33.2324 69.1196 33.2324V34.7533C99.2047 34.7533 123.143 48.9477 146.302 62.696C169.694 76.5762 193.814 90.8923 224.315 90.8923Z" fill="white" fill-opacity="0.5"/>
<path d="M224.315 80.6828C254.815 80.6828 278.936 66.3667 302.287 52.5271C325.436 38.7889 349.384 24.5742 379.459 24.5742C409.534 24.5742 433.483 38.7686 456.642 52.5271C469.026 59.8879 481.856 67.5023 495.516 72.8759L496.063 71.4666C482.524 66.1335 469.735 58.5496 457.391 51.1888C434.101 37.3391 409.939 23.0229 379.419 23.0229C348.898 23.0229 324.798 37.3391 301.446 51.1888C278.298 64.927 254.359 79.1316 224.274 79.1316C194.189 79.1316 170.251 64.9371 147.092 51.1888C123.801 37.3391 99.6402 23.0229 69.1196 23.0229V24.5438C99.2047 24.5438 123.143 38.7382 146.302 52.4967C169.694 66.3667 193.814 80.6828 224.315 80.6828Z" fill="white" fill-opacity="0.5"/>
<path d="M224.315 70.483C254.815 70.483 278.936 56.1669 302.287 42.3273C325.436 28.5891 349.384 14.3744 379.459 14.3744C409.534 14.3744 433.463 28.5891 456.621 42.2969C469.026 49.6881 481.856 57.3024 495.516 62.676L496.063 61.2566C482.524 55.9337 469.735 48.3498 457.391 40.9788C434.101 27.1291 409.939 12.813 379.419 12.813C348.898 12.813 324.798 27.1291 301.446 40.9788C278.298 54.717 254.359 68.9216 224.274 68.9216C194.189 68.9216 170.251 54.7272 147.092 40.9788C123.801 27.1291 99.6402 12.813 69.1196 12.813V14.3338C99.2047 14.3338 123.143 28.5283 146.302 42.2867C169.694 56.1669 193.814 70.483 224.315 70.483Z" fill="white" fill-opacity="0.5"/>
<path d="M224.315 60.2832C254.815 60.2832 278.936 45.9671 302.287 32.1276C325.415 18.3792 349.364 4.17464 379.439 4.17464C409.514 4.17464 433.463 18.3792 456.621 32.158C469.026 39.4884 481.856 47.1027 495.516 52.4357L496.063 51.0163C482.524 45.6934 469.735 38.1095 457.391 30.7385C434.06 16.9496 409.939 2.65381 379.439 2.65381C348.939 2.65381 324.818 16.9699 301.467 30.8196C278.318 44.5578 254.38 58.7624 224.294 58.7624C194.209 58.7624 170.271 44.568 147.112 30.8196C123.822 16.9699 99.6605 2.65381 69.1399 2.65381V4.17464C99.225 4.17464 123.164 18.3691 146.322 32.1276C169.694 45.9671 193.814 60.2832 224.315 60.2832Z" fill="white" fill-opacity="0.5"/>
<path d="M224.315 50.0834C254.815 50.0834 278.936 35.7673 302.287 21.9176C325.415 8.1794 349.364 -6.02518 379.439 -6.02518C409.514 -6.02518 433.463 8.16926 456.621 21.9176C469.026 29.2886 481.856 36.9029 495.516 42.2968L496.063 40.8773C482.524 35.5443 469.735 27.9705 457.391 20.5995C434.101 6.75996 409.939 -7.55615 379.419 -7.55615C348.898 -7.55615 324.798 6.75996 301.446 20.5995C278.298 34.3479 254.359 48.5525 224.274 48.5525C194.189 48.5525 170.251 34.358 147.092 20.5995C123.801 6.75996 99.6402 -7.55615 69.1196 -7.55615V-6.03532C99.2047 -6.03532 123.143 8.15913 146.302 21.9075C169.694 35.7673 193.814 50.0834 224.315 50.0834Z" fill="white" fill-opacity="0.5"/>
<path d="M224.315 39.884C254.815 39.884 278.936 25.5679 302.287 11.7181C325.415 -2.02005 349.364 -16.2246 379.439 -16.2246C409.514 -16.2246 433.463 -2.02005 456.621 11.7181C469.026 19.079 481.856 26.6933 495.516 32.0669L496.063 30.6576C482.524 25.3245 469.735 17.7406 457.391 10.3798C434.101 -3.45977 409.939 -17.7759 379.419 -17.7759C348.898 -17.7759 324.798 -3.45977 301.446 10.3798C278.298 24.118 254.359 38.3327 224.274 38.3327C194.189 38.3327 170.251 24.1383 147.092 10.3798C123.801 -3.45977 99.6402 -17.7759 69.1196 -17.7759V-16.255C99.2047 -16.255 123.143 -2.0606 146.302 11.6877C169.694 25.5679 193.814 39.884 224.315 39.884Z" fill="white" fill-opacity="0.5"/>
<path d="M224.315 29.684C254.815 29.684 278.936 15.3578 302.287 1.5182C314.702 -5.86292 327.562 -13.4671 341.202 -18.8306L340.655 -20.25C326.894 -14.8662 313.983 -7.20125 301.497 0.210279C278.338 13.9079 254.4 28.1632 224.315 28.1632C194.23 28.1632 170.291 13.9688 147.132 0.210279C134.647 -7.20125 121.736 -14.8662 107.923 -20.25L107.367 -18.8306C121.088 -13.4671 133.928 -5.86292 146.403 1.5182C169.694 15.3679 193.814 29.684 224.315 29.684Z" fill="white" fill-opacity="0.5"/>
<path d="M495.516 21.8669L496.063 20.4576C482.524 15.1246 469.735 7.5407 457.391 0.179865C445.047 -7.18097 431.964 -14.8662 418.233 -20.25L417.676 -18.8306C431.326 -13.4671 444.186 -5.86292 456.621 1.5182C469.056 8.89931 481.856 16.4933 495.516 21.8669Z" fill="white" fill-opacity="0.5"/>
<path d="M224.315 19.4741C254.815 19.4741 278.936 5.15802 302.287 -8.68156C308.029 -12.0984 313.973 -15.6166 319.917 -18.8204L319.188 -20.1588C313.223 -16.8941 307.269 -13.3556 301.507 -9.93878C278.338 3.769 254.4 17.9634 224.315 17.9634C194.23 17.9634 170.291 3.769 147.132 -9.98947C141.381 -13.4063 135.426 -16.9448 129.462 -20.2095L128.733 -18.8711C134.677 -15.6166 140.611 -12.0882 146.363 -8.73225C169.694 5.15803 193.814 19.4741 224.315 19.4741Z" fill="white" fill-opacity="0.5"/>
<path d="M495.516 11.6672L496.063 10.2478C482.524 4.92486 469.735 -2.65903 457.401 -10.03C451.639 -13.4468 445.685 -16.9853 439.721 -20.25L438.991 -18.9117C444.936 -15.6571 450.88 -12.1287 456.621 -8.77278C469.026 -1.30042 481.856 6.29361 495.516 11.6672Z" fill="white" fill-opacity="0.5"/>
<path d="M224.315 9.27464C254.815 9.27464 278.936 -5.04147 302.287 -18.881L301.507 -20.189C278.359 -6.45077 254.42 7.75381 224.335 7.75381C194.25 7.75381 170.311 -6.44063 147.163 -20.189L146.383 -18.881C169.694 -5.04147 193.814 9.27464 224.315 9.27464Z" fill="white" fill-opacity="0.5"/>
<path d="M495.516 1.46773L496.063 0.0482845C482.534 -5.27463 469.735 -12.8484 457.411 -20.2295L456.621 -18.9317C469.036 -11.51 481.866 -3.90588 495.516 1.46773Z" fill="white" fill-opacity="0.5"/>
</g>
<g clip-path="url(#clip2_1048_1504)">
<path d="M777.338 307.581C783.292 304.316 789.246 300.778 795.008 297.361C818.157 283.603 842.065 269.408 872.18 269.408C902.296 269.408 926.204 283.603 949.403 297.361C955.155 300.778 961.109 304.316 967.074 307.581L967.803 306.243C961.869 302.988 955.925 299.46 950.173 296.053C926.883 282.214 902.721 267.897 872.201 267.897C841.68 267.897 817.58 282.214 794.228 296.053C788.487 299.47 782.543 302.988 776.609 306.243L777.338 307.581Z" fill="white" fill-opacity="0.5"/>
<path d="M1087.6 307.581C1093.55 304.316 1099.5 300.778 1105.27 297.361C1128.42 283.602 1152.36 269.408 1182.44 269.408C1212.51 269.408 1236.46 283.602 1259.62 297.351C1265.37 300.768 1271.33 304.306 1277.29 307.571L1278.02 306.232C1272.09 302.978 1266.14 299.45 1260.39 296.043C1237.1 282.203 1212.94 267.887 1182.42 267.887C1151.9 267.887 1127.8 282.203 1104.45 296.043C1098.7 299.45 1092.76 302.978 1086.83 306.232L1087.6 307.581Z" fill="white" fill-opacity="0.5"/>
<path d="M755.85 307.621C769.601 302.237 782.512 294.572 794.998 287.161C818.157 273.463 842.065 259.269 872.18 259.269C902.296 259.269 926.204 273.463 949.403 287.161C961.889 294.572 974.81 302.237 988.561 307.621L989.118 306.202C975.438 300.838 962.567 293.234 950.132 285.853C926.842 272.003 902.681 257.697 872.16 257.697C841.64 257.697 817.539 272.013 794.188 285.853C781.753 293.234 768.872 300.869 755.252 306.202L755.85 307.621Z" fill="white" fill-opacity="0.5"/>
<path d="M1066.1 307.621C1079.86 302.238 1092.77 294.573 1105.27 287.161C1128.42 273.463 1152.36 259.269 1182.44 259.269C1212.51 259.269 1236.46 273.463 1259.62 287.212C1272.03 294.522 1284.86 302.136 1298.52 307.51L1299.06 306.1C1285.52 300.767 1272.73 293.184 1260.39 285.823C1237.1 271.973 1212.94 257.667 1182.42 257.667C1151.9 257.667 1127.8 271.983 1104.45 285.823C1092.01 293.204 1079.13 300.838 1065.51 306.171L1066.1 307.621Z" fill="white" fill-opacity="0.5"/>
<path d="M1027.31 305.117C1057.82 305.117 1081.94 290.801 1105.29 276.962C1128.44 263.223 1152.38 249.009 1182.46 249.009C1212.53 249.009 1236.48 263.203 1259.64 276.962C1272.03 284.322 1284.86 291.937 1298.52 297.31L1299.06 295.891C1285.52 290.568 1272.73 282.984 1260.39 275.613C1237.1 261.763 1212.94 247.447 1182.42 247.447C1151.9 247.447 1127.8 261.763 1104.45 275.613C1081.3 289.351 1057.36 303.556 1027.27 303.556C997.189 303.556 973.251 289.361 950.092 275.613C926.801 261.763 902.64 247.447 872.12 247.447V248.968C902.205 248.968 926.143 263.163 949.302 276.921C972.694 290.801 996.814 305.117 1027.31 305.117Z" fill="white" fill-opacity="0.5"/>
<path d="M1027.31 294.918C1057.82 294.918 1081.94 280.601 1105.29 266.762C1128.44 253.014 1152.38 238.809 1182.46 238.809C1212.53 238.809 1236.48 253.003 1259.64 266.762C1272.03 274.123 1284.86 281.737 1298.52 287.111L1299.06 285.691C1285.52 280.368 1272.73 272.784 1260.39 265.413C1237.1 251.564 1212.94 237.248 1182.42 237.248C1151.9 237.248 1127.8 251.564 1104.45 265.413C1081.3 279.152 1057.36 293.356 1027.27 293.356C997.189 293.356 973.251 279.162 950.092 265.413C926.801 251.564 902.64 237.248 872.12 237.248V238.768C902.205 238.768 926.143 252.963 949.302 266.721C972.694 280.561 996.814 294.918 1027.31 294.918Z" fill="white" fill-opacity="0.5"/>
<path d="M1027.31 284.717C1057.82 284.717 1081.94 270.401 1105.29 256.562C1128.44 242.813 1152.38 228.609 1182.46 228.609C1212.53 228.609 1236.48 242.803 1259.64 256.552C1272.03 263.923 1284.86 271.537 1298.52 276.911L1299.06 275.491C1285.52 270.158 1272.73 262.584 1260.39 255.213C1237.1 241.374 1212.94 227.058 1182.42 227.058C1151.9 227.058 1127.8 241.374 1104.45 255.213C1081.3 268.962 1057.36 283.166 1027.27 283.166C997.189 283.166 973.251 268.972 950.092 255.213C926.801 241.374 902.64 227.058 872.12 227.058V228.578C902.205 228.578 926.143 242.773 949.302 256.531C972.694 270.422 996.814 284.717 1027.31 284.717Z" fill="white" fill-opacity="0.5"/>
<path d="M1027.31 274.477C1057.82 274.477 1081.94 260.161 1105.29 246.311C1128.44 232.573 1152.38 218.369 1182.46 218.369C1212.53 218.369 1236.48 232.563 1259.64 246.311C1272.03 253.713 1284.86 261.297 1298.52 266.701L1299.06 265.291C1285.52 259.958 1272.73 252.374 1260.39 245.014C1237.1 231.174 1212.94 216.858 1182.42 216.858C1151.9 216.858 1127.8 231.174 1104.45 245.014C1081.3 258.752 1057.36 272.967 1027.27 272.967C997.189 272.967 973.251 258.772 950.092 245.014C926.801 231.174 902.64 216.858 872.12 216.858V218.379C902.205 218.379 926.143 232.573 949.302 246.322C972.694 260.202 996.814 274.477 1027.31 274.477Z" fill="white" fill-opacity="0.5"/>
<path d="M1027.31 264.338C1057.82 264.338 1081.94 250.022 1105.29 236.173C1128.44 222.434 1152.38 208.23 1182.46 208.23C1212.53 208.23 1236.48 222.424 1259.64 236.173C1272.03 243.513 1284.86 251.158 1298.52 256.501L1299.06 255.092C1285.52 249.759 1272.73 242.175 1260.39 234.814C1237.1 220.974 1212.94 206.658 1182.42 206.658C1151.9 206.658 1127.8 220.974 1104.45 234.814C1081.3 248.552 1057.36 262.767 1027.27 262.767C997.189 262.767 973.251 248.572 950.092 234.814C926.801 220.974 902.64 206.658 872.12 206.658V208.179C902.205 208.179 926.143 222.373 949.302 236.122C972.694 250.002 996.814 264.338 1027.31 264.338Z" fill="white" fill-opacity="0.5"/>
<path d="M1027.31 254.108C1057.82 254.108 1081.94 239.792 1105.29 225.952C1128.44 212.214 1152.38 198 1182.46 198C1212.53 198 1236.48 212.194 1259.64 225.952C1272.03 233.313 1284.86 240.928 1298.52 246.301L1299.06 244.892C1285.52 239.559 1272.73 231.975 1260.39 224.614C1237.1 210.764 1212.94 196.448 1182.42 196.448C1151.9 196.448 1127.8 210.764 1104.45 224.614C1081.3 238.352 1057.36 252.557 1027.27 252.557C997.189 252.557 973.251 238.362 950.092 224.614C926.801 210.764 902.64 196.448 872.12 196.448V197.969C902.205 197.969 926.143 212.164 949.302 225.922C972.694 239.792 996.814 254.108 1027.31 254.108Z" fill="white" fill-opacity="0.5"/>
<path d="M1027.31 243.909C1057.82 243.909 1081.94 229.593 1105.29 215.753C1128.44 202.015 1152.38 187.8 1182.46 187.8C1212.53 187.8 1236.48 201.995 1259.64 215.753C1272.03 223.114 1284.86 230.728 1298.52 236.102L1299.06 234.682C1285.52 229.359 1272.73 221.776 1260.39 214.405C1237.1 200.555 1212.94 186.239 1182.42 186.239C1151.9 186.239 1127.8 200.555 1104.45 214.405C1081.3 228.143 1057.36 242.347 1027.27 242.347C997.189 242.347 973.251 228.153 950.092 214.405C926.801 200.555 902.64 186.239 872.12 186.239V187.76C902.205 187.76 926.143 201.954 949.302 215.713C972.694 229.593 996.814 243.909 1027.31 243.909Z" fill="white" fill-opacity="0.5"/>
<path d="M1027.31 233.709C1057.82 233.709 1081.94 219.393 1105.29 205.553C1128.44 191.805 1152.38 177.6 1182.46 177.6C1212.53 177.6 1236.48 191.795 1259.64 205.553C1272.03 212.914 1284.86 220.528 1298.52 225.902L1299.06 224.482C1285.52 219.149 1272.73 211.575 1260.39 204.205C1237.1 190.365 1212.94 176.049 1182.42 176.049C1151.9 176.049 1127.8 190.365 1104.45 204.205C1081.3 217.953 1057.36 232.157 1027.27 232.157C997.189 232.157 973.251 217.963 950.092 204.205C926.801 190.365 902.64 176.049 872.12 176.049V177.57C902.205 177.57 926.143 191.764 949.302 205.523C972.694 219.393 996.814 233.709 1027.31 233.709Z" fill="white" fill-opacity="0.5"/>
<path d="M1027.31 223.509C1057.82 223.509 1081.94 209.193 1105.29 195.343C1128.44 181.605 1152.38 167.401 1182.46 167.401C1212.53 167.401 1236.46 181.605 1259.62 195.394C1272.03 202.714 1284.86 210.329 1298.52 215.672L1299.06 214.252C1285.52 208.919 1272.73 201.335 1260.39 193.975C1237.1 180.135 1212.94 165.819 1182.42 165.819C1151.9 165.819 1127.8 180.135 1104.45 193.975C1081.3 207.723 1057.36 221.927 1027.27 221.927C997.189 221.927 973.251 207.733 950.092 193.975C926.801 180.135 902.64 165.819 872.12 165.819V167.34C902.205 167.34 926.143 181.534 949.302 195.282C972.694 209.193 996.814 223.509 1027.31 223.509Z" fill="white" fill-opacity="0.5"/>
<path d="M1027.31 213.309C1057.82 213.309 1081.94 198.993 1105.29 185.143C1128.44 171.405 1152.38 157.201 1182.46 157.201C1212.53 157.201 1236.48 171.395 1259.64 185.143C1272.03 192.504 1284.86 200.119 1298.52 205.533L1299.06 204.123C1285.52 198.79 1272.73 191.206 1260.39 183.846C1237.1 170.006 1212.94 155.69 1182.42 155.69C1151.9 155.69 1127.8 170.006 1104.45 183.846C1081.3 197.584 1057.36 211.799 1027.27 211.799C997.189 211.799 973.251 197.604 950.092 183.846C926.801 170.006 902.64 155.69 872.12 155.69V157.211C902.205 157.211 926.143 171.405 949.302 185.154C972.694 198.993 996.814 213.309 1027.31 213.309Z" fill="white" fill-opacity="0.5"/>
<path d="M1027.31 203.11C1057.82 203.11 1081.94 188.793 1105.29 174.944C1128.44 161.206 1152.38 147.001 1182.46 147.001C1212.53 147.001 1236.48 161.195 1259.64 174.944C1272.03 182.305 1284.86 189.919 1298.52 195.292L1299.06 193.883C1285.52 188.55 1272.73 180.966 1260.39 173.605C1237.1 159.756 1212.94 145.45 1182.42 145.45C1151.9 145.45 1127.8 159.766 1104.45 173.605C1081.3 187.344 1057.36 201.558 1027.27 201.558C997.189 201.558 973.251 187.364 950.092 173.605C926.801 159.766 902.64 145.45 872.12 145.45V146.971C902.205 146.971 926.143 161.165 949.302 174.913C972.694 188.793 996.814 203.11 1027.31 203.11Z" fill="white" fill-opacity="0.5"/>
<path d="M1027.31 192.9C1057.82 192.9 1081.94 178.584 1105.29 164.744C1128.44 151.006 1152.38 136.791 1182.46 136.791C1212.53 136.791 1236.48 150.986 1259.64 164.744C1272.03 172.075 1284.86 179.719 1298.52 185.093L1299.06 183.674C1285.52 178.351 1272.73 170.767 1260.39 163.396C1237.1 149.546 1212.94 135.23 1182.42 135.23C1151.9 135.23 1127.8 149.546 1104.45 163.396C1081.34 177.144 1057.4 191.339 1027.31 191.339C997.23 191.339 973.291 177.144 950.132 163.396C926.842 149.546 902.681 135.23 872.16 135.23V136.751C902.245 136.751 926.184 150.945 949.342 164.704C972.694 178.584 996.814 192.9 1027.31 192.9Z" fill="white" fill-opacity="0.5"/>
<path d="M1027.31 182.7C1057.82 182.7 1081.94 168.384 1105.29 154.545C1128.44 140.806 1152.38 126.592 1182.46 126.592C1212.53 126.592 1236.48 140.786 1259.64 154.545C1272.03 161.936 1284.86 169.52 1298.52 174.893L1299.06 173.474C1285.52 168.151 1272.73 160.567 1260.39 153.196C1237.1 139.346 1212.94 125.03 1182.42 125.03C1151.9 125.03 1127.8 139.346 1104.45 153.196C1081.34 167.005 1057.4 181.2 1027.31 181.2C997.23 181.2 973.291 167.005 950.132 153.257C926.842 139.407 902.681 125.091 872.16 125.091V126.612C902.245 126.612 926.184 140.806 949.342 154.565C972.694 168.384 996.814 182.7 1027.31 182.7Z" fill="white" fill-opacity="0.5"/>
<path d="M1027.31 172.5C1057.82 172.5 1081.94 158.184 1105.29 144.334C1128.44 130.596 1152.38 116.392 1182.46 116.392C1212.53 116.392 1236.48 130.586 1259.64 144.334C1272.03 151.705 1284.86 159.32 1298.52 164.693L1299.06 163.274C1285.52 157.941 1272.73 150.367 1260.39 142.996C1237.1 129.156 1212.94 114.84 1182.42 114.84C1151.9 114.84 1127.8 129.156 1104.45 142.996C1081.3 156.744 1057.36 170.949 1027.27 170.949C997.189 170.949 973.251 156.755 950.092 142.996C926.801 129.156 902.64 114.84 872.12 114.84V116.361C902.205 116.361 926.143 130.556 949.302 144.304C972.694 158.184 996.814 172.5 1027.31 172.5Z" fill="white" fill-opacity="0.5"/>
<path d="M1027.31 162.3C1057.82 162.3 1081.94 147.984 1105.29 134.135C1128.42 120.366 1152.36 106.172 1182.44 106.172C1212.51 106.172 1236.46 120.366 1259.62 134.114C1272.03 141.506 1284.86 149.11 1298.52 154.494L1299.06 153.074C1285.52 147.741 1272.73 140.157 1260.39 132.796C1237.1 118.957 1212.94 104.641 1182.42 104.641C1151.9 104.641 1127.8 118.957 1104.45 132.796C1081.3 146.535 1057.36 160.749 1027.27 160.749C997.189 160.749 973.251 146.555 950.092 132.796C926.801 118.957 902.64 104.641 872.12 104.641V106.172C902.205 106.172 926.143 120.366 949.302 134.114C972.694 147.984 996.814 162.3 1027.31 162.3Z" fill="white" fill-opacity="0.5"/>
<path d="M1027.31 152.101C1057.82 152.101 1081.94 137.785 1105.29 123.935C1128.42 110.227 1152.36 96.0327 1182.44 96.0327C1212.51 96.0327 1236.46 110.227 1259.62 123.975C1272.03 131.296 1284.86 138.91 1298.52 144.284L1299.06 142.874C1285.52 137.541 1272.73 129.957 1260.39 122.597C1237.1 108.757 1212.94 94.4409 1182.42 94.4409C1151.9 94.4409 1127.8 108.757 1104.45 122.597C1081.3 136.335 1057.36 150.55 1027.27 150.55C997.189 150.55 973.251 136.355 950.092 122.597C926.801 108.757 902.64 94.4409 872.12 94.4409V96.0327C902.205 96.0327 926.143 110.227 949.302 123.975C972.694 137.785 996.814 152.101 1027.31 152.101Z" fill="white" fill-opacity="0.5"/>
<path d="M1027.31 141.891C1057.82 141.891 1081.94 127.585 1105.29 113.736C1128.44 99.9974 1152.38 85.7827 1182.46 85.7827C1212.53 85.7827 1236.48 99.9771 1259.64 113.736C1272.03 121.096 1284.86 128.711 1298.52 134.084L1299.06 132.675C1285.52 127.342 1272.73 119.758 1260.39 112.397C1237.1 98.5476 1212.94 84.2314 1182.42 84.2314C1151.9 84.2314 1127.8 98.5476 1104.45 112.397C1081.3 126.135 1057.36 140.34 1027.27 140.34C997.189 140.34 973.251 126.146 950.092 112.397C926.801 98.5476 902.64 84.2314 872.12 84.2314V85.7523C902.205 85.7523 926.143 99.9467 949.302 113.705C972.694 127.585 996.814 141.891 1027.31 141.891Z" fill="white" fill-opacity="0.5"/>
<path d="M1027.31 131.691C1057.82 131.691 1081.94 117.375 1105.29 103.536C1128.44 89.7976 1152.38 75.5829 1182.46 75.5829C1212.53 75.5829 1236.48 89.7773 1259.64 103.536C1272.03 110.897 1284.86 118.511 1298.52 123.885L1299.06 122.465C1285.52 117.142 1272.73 109.558 1260.39 102.187C1237.1 88.3376 1212.94 74.0215 1182.42 74.0215C1151.9 74.0215 1127.8 88.3376 1104.45 102.187C1081.3 115.926 1057.36 130.13 1027.27 130.13C997.189 130.13 973.251 115.936 950.092 102.187C926.801 88.3376 902.64 74.0215 872.12 74.0215V75.5423C902.205 75.5423 926.143 89.7368 949.302 103.495C972.694 117.375 996.814 131.691 1027.31 131.691Z" fill="white" fill-opacity="0.5"/>
<path d="M1027.31 121.492C1057.82 121.492 1081.94 107.176 1105.29 93.3361C1128.44 79.5877 1152.38 65.3832 1182.46 65.3832C1212.53 65.3832 1236.48 79.5776 1259.64 93.3361C1272.03 100.697 1284.86 108.311 1298.52 113.685L1299.06 112.255C1285.52 106.932 1272.73 99.3484 1260.39 91.9775C1237.1 78.1379 1212.94 63.8218 1182.42 63.8218C1151.9 63.8218 1127.8 78.1379 1104.45 91.9876C1081.3 105.726 1057.36 119.93 1027.27 119.93C997.189 119.93 973.251 105.736 950.092 91.9876C926.801 78.1379 902.64 63.8218 872.12 63.8218V65.3426C902.205 65.3426 926.143 79.5371 949.302 93.2955C972.694 107.186 996.814 121.492 1027.31 121.492Z" fill="white" fill-opacity="0.5"/>
<path d="M1027.31 111.292C1057.82 111.292 1081.94 96.9757 1105.29 83.1259C1128.44 69.3878 1152.38 55.1832 1182.46 55.1832C1212.53 55.1832 1236.48 69.3776 1259.64 83.1259C1272.03 90.4969 1284.86 98.1112 1298.52 103.485L1299.06 102.116C1285.52 96.783 1272.73 89.2093 1260.39 81.8383C1237.1 67.9987 1212.94 53.6826 1182.42 53.6826C1151.9 53.6826 1127.8 67.9987 1104.45 81.8383C1081.3 95.5866 1057.36 109.791 1027.27 109.791C997.189 109.791 973.251 95.5968 950.092 81.8383C926.801 67.9987 902.64 53.6826 872.12 53.6826V55.2035C902.205 55.2035 926.143 69.3979 949.302 83.1462C972.694 96.9757 996.814 111.292 1027.31 111.292Z" fill="white" fill-opacity="0.5"/>
<path d="M1027.31 101.102C1057.82 101.102 1081.94 86.786 1105.29 72.9363C1128.44 59.1981 1152.38 44.9935 1182.46 44.9935C1212.53 44.9935 1236.48 59.188 1259.64 72.9363C1272.03 80.287 1284.86 87.9216 1298.52 93.2749L1299.06 91.8656C1285.52 86.5325 1272.73 78.9487 1260.39 71.5878C1237.1 57.7482 1212.94 43.4321 1182.42 43.4321C1151.9 43.4321 1127.8 57.7482 1104.45 71.5878C1081.3 85.326 1057.36 99.5407 1027.27 99.5407C997.189 99.5407 973.251 85.3463 950.092 71.5878C926.801 57.7482 902.64 43.4321 872.12 43.4321V44.953C902.205 44.953 926.143 59.1474 949.302 72.8957C972.694 86.7759 996.814 101.102 1027.31 101.102Z" fill="white" fill-opacity="0.5"/>
<path d="M1027.31 90.8923C1057.82 90.8923 1081.94 76.5762 1105.29 62.7264C1128.44 48.9883 1152.38 34.7837 1182.46 34.7837C1212.53 34.7837 1236.48 48.9781 1259.64 62.7264C1272.03 70.0873 1284.86 77.7016 1298.52 83.0752L1299.06 81.6659C1285.52 76.3328 1272.73 68.7489 1260.39 61.3881C1237.1 47.5485 1212.94 33.2324 1182.42 33.2324C1151.9 33.2324 1127.8 47.5485 1104.45 61.3881C1081.3 75.1263 1057.36 89.341 1027.27 89.341C997.189 89.341 973.251 75.1466 950.092 61.3881C926.801 47.5485 902.64 33.2324 872.12 33.2324V34.7533C902.205 34.7533 926.143 48.9477 949.302 62.696C972.694 76.5762 996.814 90.8923 1027.31 90.8923Z" fill="white" fill-opacity="0.5"/>
<path d="M1027.31 80.6828C1057.82 80.6828 1081.94 66.3667 1105.29 52.5271C1128.44 38.7889 1152.38 24.5742 1182.46 24.5742C1212.53 24.5742 1236.48 38.7686 1259.64 52.5271C1272.03 59.8879 1284.86 67.5023 1298.52 72.8759L1299.06 71.4666C1285.52 66.1335 1272.73 58.5496 1260.39 51.1888C1237.1 37.3391 1212.94 23.0229 1182.42 23.0229C1151.9 23.0229 1127.8 37.3391 1104.45 51.1888C1081.3 64.927 1057.36 79.1316 1027.27 79.1316C997.189 79.1316 973.251 64.9371 950.092 51.1888C926.801 37.3391 902.64 23.0229 872.12 23.0229V24.5438C902.205 24.5438 926.143 38.7382 949.302 52.4967C972.694 66.3667 996.814 80.6828 1027.31 80.6828Z" fill="white" fill-opacity="0.5"/>
<path d="M1027.31 70.483C1057.82 70.483 1081.94 56.1669 1105.29 42.3273C1128.44 28.5891 1152.38 14.3744 1182.46 14.3744C1212.53 14.3744 1236.46 28.5891 1259.62 42.2969C1272.03 49.6881 1284.86 57.3024 1298.52 62.676L1299.06 61.2566C1285.52 55.9337 1272.73 48.3498 1260.39 40.9788C1237.1 27.1291 1212.94 12.813 1182.42 12.813C1151.9 12.813 1127.8 27.1291 1104.45 40.9788C1081.3 54.717 1057.36 68.9216 1027.27 68.9216C997.189 68.9216 973.251 54.7272 950.092 40.9788C926.801 27.1291 902.64 12.813 872.12 12.813V14.3338C902.205 14.3338 926.143 28.5283 949.302 42.2867C972.694 56.1669 996.814 70.483 1027.31 70.483Z" fill="white" fill-opacity="0.5"/>
<path d="M1027.31 60.2832C1057.82 60.2832 1081.94 45.9671 1105.29 32.1276C1128.42 18.3792 1152.36 4.17464 1182.44 4.17464C1212.51 4.17464 1236.46 18.3792 1259.62 32.158C1272.03 39.4884 1284.86 47.1027 1298.52 52.4357L1299.06 51.0163C1285.52 45.6934 1272.73 38.1095 1260.39 30.7385C1237.06 16.9496 1212.94 2.65381 1182.44 2.65381C1151.94 2.65381 1127.82 16.9699 1104.47 30.8196C1081.32 44.5578 1057.38 58.7624 1027.29 58.7624C997.209 58.7624 973.271 44.568 950.112 30.8196C926.822 16.9699 902.66 2.65381 872.14 2.65381V4.17464C902.225 4.17464 926.164 18.3691 949.322 32.1276C972.694 45.9671 996.814 60.2832 1027.31 60.2832Z" fill="white" fill-opacity="0.5"/>
<path d="M1027.31 50.0834C1057.82 50.0834 1081.94 35.7673 1105.29 21.9176C1128.42 8.1794 1152.36 -6.02518 1182.44 -6.02518C1212.51 -6.02518 1236.46 8.16926 1259.62 21.9176C1272.03 29.2886 1284.86 36.9029 1298.52 42.2968L1299.06 40.8773C1285.52 35.5443 1272.73 27.9705 1260.39 20.5995C1237.1 6.75996 1212.94 -7.55615 1182.42 -7.55615C1151.9 -7.55615 1127.8 6.75996 1104.45 20.5995C1081.3 34.3479 1057.36 48.5525 1027.27 48.5525C997.189 48.5525 973.251 34.358 950.092 20.5995C926.801 6.75996 902.64 -7.55615 872.12 -7.55615V-6.03532C902.205 -6.03532 926.143 8.15913 949.302 21.9075C972.694 35.7673 996.814 50.0834 1027.31 50.0834Z" fill="white" fill-opacity="0.5"/>
<path d="M1027.31 39.884C1057.82 39.884 1081.94 25.5679 1105.29 11.7181C1128.42 -2.02005 1152.36 -16.2246 1182.44 -16.2246C1212.51 -16.2246 1236.46 -2.02005 1259.62 11.7181C1272.03 19.079 1284.86 26.6933 1298.52 32.0669L1299.06 30.6576C1285.52 25.3245 1272.73 17.7406 1260.39 10.3798C1237.1 -3.45977 1212.94 -17.7759 1182.42 -17.7759C1151.9 -17.7759 1127.8 -3.45977 1104.45 10.3798C1081.3 24.118 1057.36 38.3327 1027.27 38.3327C997.189 38.3327 973.251 24.1383 950.092 10.3798C926.801 -3.45977 902.64 -17.7759 872.12 -17.7759V-16.255C902.205 -16.255 926.143 -2.0606 949.302 11.6877C972.694 25.5679 996.814 39.884 1027.31 39.884Z" fill="white" fill-opacity="0.5"/>
<path d="M1027.31 29.684C1057.82 29.684 1081.94 15.3578 1105.29 1.5182C1117.7 -5.86292 1130.56 -13.4671 1144.2 -18.8306L1143.66 -20.25C1129.89 -14.8662 1116.98 -7.20125 1104.5 0.210279C1081.34 13.9079 1057.4 28.1632 1027.31 28.1632C997.23 28.1632 973.291 13.9688 950.132 0.210279C937.647 -7.20125 924.736 -14.8662 910.923 -20.25L910.367 -18.8306C924.088 -13.4671 936.928 -5.86292 949.403 1.5182C972.694 15.3679 996.814 29.684 1027.31 29.684Z" fill="white" fill-opacity="0.5"/>
<path d="M1298.52 21.8669L1299.06 20.4576C1285.52 15.1246 1272.73 7.5407 1260.39 0.179865C1248.05 -7.18097 1234.96 -14.8662 1221.23 -20.25L1220.68 -18.8306C1234.33 -13.4671 1247.19 -5.86292 1259.62 1.5182C1272.06 8.89931 1284.86 16.4933 1298.52 21.8669Z" fill="white" fill-opacity="0.5"/>
<path d="M1027.31 19.4741C1057.82 19.4741 1081.94 5.15802 1105.29 -8.68156C1111.03 -12.0984 1116.97 -15.6166 1122.92 -18.8204L1122.19 -20.1588C1116.22 -16.8941 1110.27 -13.3556 1104.51 -9.93878C1081.34 3.769 1057.4 17.9634 1027.31 17.9634C997.23 17.9634 973.291 3.769 950.132 -9.98947C944.381 -13.4063 938.426 -16.9448 932.462 -20.2095L931.733 -18.8711C937.677 -15.6166 943.611 -12.0882 949.363 -8.73225C972.694 5.15803 996.814 19.4741 1027.31 19.4741Z" fill="white" fill-opacity="0.5"/>
<path d="M1298.52 11.6672L1299.06 10.2478C1285.52 4.92486 1272.73 -2.65903 1260.4 -10.03C1254.64 -13.4468 1248.68 -16.9853 1242.72 -20.25L1241.99 -18.9117C1247.94 -15.6571 1253.88 -12.1287 1259.62 -8.77278C1272.03 -1.30042 1284.86 6.29361 1298.52 11.6672Z" fill="white" fill-opacity="0.5"/>
<path d="M1027.31 9.27464C1057.82 9.27464 1081.94 -5.04147 1105.29 -18.881L1104.51 -20.189C1081.36 -6.45077 1057.42 7.75381 1027.33 7.75381C997.25 7.75381 973.311 -6.44063 950.163 -20.189L949.383 -18.881C972.694 -5.04147 996.814 9.27464 1027.31 9.27464Z" fill="white" fill-opacity="0.5"/>
<path d="M1298.52 1.46773L1299.06 0.0482845C1285.53 -5.27463 1272.73 -12.8484 1260.41 -20.2295L1259.62 -18.9317C1272.04 -11.51 1284.87 -3.90588 1298.52 1.46773Z" fill="white" fill-opacity="0.5"/>
</g>
<g clip-path="url(#clip3_1048_1504)">
<path d="M1008.95 307.581C1002.98 304.316 997.012 300.778 991.236 297.361C968.03 283.603 944.062 269.408 913.872 269.408C883.681 269.408 859.713 283.603 836.456 297.361C830.69 300.778 824.721 304.316 818.742 307.581L818.011 306.243C823.96 302.988 829.918 299.46 835.685 296.053C859.033 282.214 883.255 267.897 913.851 267.897C944.448 267.897 968.608 282.214 992.018 296.053C997.774 299.47 1003.73 302.988 1009.68 306.243L1008.95 307.581Z" fill="white" fill-opacity="0.5"/>
<path d="M697.918 307.581C691.949 304.316 685.98 300.778 680.204 297.361C656.998 283.602 632.989 269.408 602.839 269.408C572.689 269.408 548.681 283.602 525.464 297.351C519.698 300.768 513.729 304.306 507.75 307.571L507.019 306.232C512.968 302.978 518.927 299.45 524.693 296.043C548.041 282.203 572.263 267.887 602.859 267.887C633.456 267.887 657.617 282.203 681.026 296.043C686.782 299.45 692.741 302.978 698.69 306.232L697.918 307.581Z" fill="white" fill-opacity="0.5"/>
<path d="M1030.49 307.621C1016.71 302.237 1003.76 294.572 991.246 287.161C968.03 273.463 944.062 259.269 913.871 259.269C883.681 259.269 859.713 273.463 836.456 287.161C823.939 294.572 810.986 302.237 797.2 307.621L796.642 306.202C810.356 300.838 823.259 293.234 835.725 285.853C859.074 272.003 883.295 257.697 913.892 257.697C944.488 257.697 968.649 272.013 992.058 285.853C1004.52 293.234 1017.44 300.869 1031.09 306.202L1030.49 307.621Z" fill="white" fill-opacity="0.5"/>
<path d="M719.47 307.621C705.674 302.238 692.731 294.573 680.204 287.161C656.998 273.463 632.989 259.269 602.839 259.269C572.689 259.269 548.681 273.463 525.464 287.212C513.029 294.522 500.167 302.136 486.472 307.51L485.924 306.1C499.497 300.767 512.318 293.184 524.693 285.823C548.041 271.973 572.263 257.667 602.859 257.667C633.456 257.667 657.617 271.983 681.026 285.823C693.492 293.204 706.405 300.838 720.059 306.171L719.47 307.621Z" fill="white" fill-opacity="0.5"/>
<path d="M758.35 305.117C727.774 305.117 703.593 290.801 680.184 276.962C656.977 263.223 632.969 249.009 602.819 249.009C572.669 249.009 548.661 263.203 525.444 276.962C513.029 284.322 500.167 291.937 486.472 297.31L485.924 295.891C499.497 290.568 512.318 282.984 524.693 275.613C548.041 261.763 572.263 247.447 602.859 247.447C633.456 247.447 657.617 261.763 681.026 275.613C704.233 289.351 728.231 303.556 758.391 303.556C788.551 303.556 812.549 289.361 835.766 275.613C859.114 261.763 883.336 247.447 913.932 247.447V248.968C883.772 248.968 859.774 263.163 836.558 276.921C813.108 290.801 788.927 305.117 758.35 305.117Z" fill="white" fill-opacity="0.5"/>
<path d="M758.35 294.918C727.774 294.918 703.593 280.601 680.184 266.762C656.977 253.014 632.969 238.809 602.819 238.809C572.669 238.809 548.661 253.003 525.444 266.762C513.029 274.123 500.167 281.737 486.472 287.111L485.924 285.691C499.497 280.368 512.318 272.784 524.693 265.413C548.041 251.564 572.263 237.248 602.859 237.248C633.456 237.248 657.617 251.564 681.026 265.413C704.233 279.152 728.231 293.356 758.391 293.356C788.551 293.356 812.549 279.162 835.766 265.413C859.114 251.564 883.336 237.248 913.932 237.248V238.768C883.772 238.768 859.774 252.963 836.558 266.721C813.108 280.561 788.927 294.918 758.35 294.918Z" fill="white" fill-opacity="0.5"/>
<path d="M758.35 284.717C727.774 284.717 703.593 270.401 680.184 256.562C656.977 242.813 632.969 228.609 602.819 228.609C572.669 228.609 548.661 242.803 525.444 256.552C513.029 263.923 500.167 271.537 486.472 276.911L485.924 275.491C499.497 270.158 512.318 262.584 524.693 255.213C548.041 241.374 572.263 227.058 602.859 227.058C633.456 227.058 657.617 241.374 681.026 255.213C704.233 268.962 728.231 283.166 758.391 283.166C788.551 283.166 812.549 268.972 835.766 255.213C859.114 241.374 883.336 227.058 913.932 227.058V228.578C883.772 228.578 859.774 242.773 836.558 256.531C813.108 270.422 788.927 284.717 758.35 284.717Z" fill="white" fill-opacity="0.5"/>
<path d="M758.35 274.477C727.774 274.477 703.593 260.161 680.184 246.311C656.977 232.573 632.969 218.369 602.819 218.369C572.669 218.369 548.661 232.563 525.444 246.311C513.029 253.713 500.167 261.297 486.472 266.701L485.924 265.291C499.497 259.958 512.318 252.374 524.693 245.014C548.041 231.174 572.263 216.858 602.859 216.858C633.456 216.858 657.617 231.174 681.026 245.014C704.233 258.752 728.231 272.967 758.391 272.967C788.551 272.967 812.549 258.772 835.766 245.014C859.114 231.174 883.336 216.858 913.932 216.858V218.379C883.772 218.379 859.774 232.573 836.558 246.322C813.108 260.202 788.927 274.477 758.35 274.477Z" fill="white" fill-opacity="0.5"/>
<path d="M758.35 264.338C727.774 264.338 703.593 250.022 680.184 236.173C656.977 222.434 632.969 208.23 602.819 208.23C572.669 208.23 548.661 222.424 525.444 236.173C513.029 243.513 500.167 251.158 486.472 256.501L485.924 255.092C499.497 249.759 512.318 242.175 524.693 234.814C548.041 220.974 572.263 206.658 602.859 206.658C633.456 206.658 657.617 220.974 681.026 234.814C704.233 248.552 728.231 262.767 758.391 262.767C788.551 262.767 812.549 248.572 835.766 234.814C859.114 220.974 883.336 206.658 913.932 206.658V208.179C883.772 208.179 859.774 222.373 836.558 236.122C813.108 250.002 788.927 264.338 758.35 264.338Z" fill="white" fill-opacity="0.5"/>
<path d="M758.35 254.108C727.774 254.108 703.593 239.792 680.184 225.952C656.977 212.214 632.969 198 602.819 198C572.669 198 548.661 212.194 525.444 225.952C513.029 233.313 500.167 240.928 486.472 246.301L485.924 244.892C499.497 239.559 512.318 231.975 524.693 224.614C548.041 210.764 572.263 196.448 602.859 196.448C633.456 196.448 657.617 210.764 681.026 224.614C704.233 238.352 728.231 252.557 758.391 252.557C788.551 252.557 812.549 238.362 835.766 224.614C859.114 210.764 883.336 196.448 913.932 196.448V197.969C883.772 197.969 859.774 212.164 836.558 225.922C813.108 239.792 788.927 254.108 758.35 254.108Z" fill="white" fill-opacity="0.5"/>
<path d="M758.35 243.909C727.774 243.909 703.593 229.593 680.184 215.753C656.977 202.015 632.969 187.8 602.819 187.8C572.669 187.8 548.661 201.995 525.444 215.753C513.029 223.114 500.167 230.728 486.472 236.102L485.924 234.682C499.497 229.359 512.318 221.776 524.693 214.405C548.041 200.555 572.263 186.239 602.859 186.239C633.456 186.239 657.617 200.555 681.026 214.405C704.233 228.143 728.231 242.347 758.391 242.347C788.551 242.347 812.549 228.153 835.766 214.405C859.114 200.555 883.336 186.239 913.932 186.239V187.76C883.772 187.76 859.774 201.954 836.558 215.713C813.108 229.593 788.927 243.909 758.35 243.909Z" fill="white" fill-opacity="0.5"/>
<path d="M758.35 233.709C727.774 233.709 703.593 219.393 680.184 205.553C656.977 191.805 632.969 177.6 602.819 177.6C572.669 177.6 548.661 191.795 525.444 205.553C513.029 212.914 500.167 220.528 486.472 225.902L485.924 224.482C499.497 219.149 512.318 211.575 524.693 204.205C548.041 190.365 572.263 176.049 602.859 176.049C633.456 176.049 657.617 190.365 681.026 204.205C704.233 217.953 728.231 232.157 758.391 232.157C788.551 232.157 812.549 217.963 835.766 204.205C859.114 190.365 883.336 176.049 913.932 176.049V177.57C883.772 177.57 859.774 191.764 836.558 205.523C813.108 219.393 788.927 233.709 758.35 233.709Z" fill="white" fill-opacity="0.5"/>
<path d="M758.35 223.509C727.774 223.509 703.593 209.193 680.184 195.343C656.977 181.605 632.969 167.401 602.819 167.401C572.669 167.401 548.681 181.605 525.464 195.394C513.029 202.714 500.167 210.329 486.472 215.672L485.924 214.252C499.497 208.919 512.318 201.335 524.693 193.975C548.041 180.135 572.263 165.819 602.859 165.819C633.456 165.819 657.617 180.135 681.026 193.975C704.233 207.723 728.231 221.927 758.391 221.927C788.551 221.927 812.549 207.733 835.766 193.975C859.114 180.135 883.336 165.819 913.932 165.819V167.34C883.772 167.34 859.774 181.534 836.558 195.282C813.108 209.193 788.927 223.509 758.35 223.509Z" fill="white" fill-opacity="0.5"/>
<path d="M758.35 213.309C727.774 213.309 703.593 198.993 680.184 185.143C656.977 171.405 632.969 157.201 602.819 157.201C572.669 157.201 548.661 171.395 525.444 185.143C513.029 192.504 500.167 200.119 486.472 205.533L485.924 204.123C499.497 198.79 512.318 191.206 524.693 183.846C548.041 170.006 572.263 155.69 602.859 155.69C633.456 155.69 657.617 170.006 681.026 183.846C704.233 197.584 728.231 211.799 758.391 211.799C788.551 211.799 812.549 197.604 835.766 183.846C859.114 170.006 883.336 155.69 913.932 155.69V157.211C883.772 157.211 859.774 171.405 836.558 185.154C813.108 198.993 788.927 213.309 758.35 213.309Z" fill="white" fill-opacity="0.5"/>
<path d="M758.35 203.11C727.774 203.11 703.593 188.793 680.184 174.944C656.977 161.206 632.969 147.001 602.819 147.001C572.669 147.001 548.661 161.195 525.444 174.944C513.029 182.305 500.167 189.919 486.472 195.292L485.924 193.883C499.497 188.55 512.318 180.966 524.693 173.605C548.041 159.756 572.263 145.45 602.859 145.45C633.456 145.45 657.617 159.766 681.026 173.605C704.233 187.344 728.231 201.558 758.391 201.558C788.551 201.558 812.549 187.364 835.766 173.605C859.114 159.766 883.336 145.45 913.932 145.45V146.971C883.772 146.971 859.774 161.165 836.558 174.913C813.108 188.793 788.927 203.11 758.35 203.11Z" fill="white" fill-opacity="0.5"/>
<path d="M758.35 192.9C727.774 192.9 703.593 178.584 680.184 164.744C656.977 151.006 632.969 136.791 602.819 136.791C572.669 136.791 548.661 150.986 525.444 164.744C513.029 172.075 500.167 179.719 486.472 185.093L485.924 183.674C499.497 178.351 512.318 170.767 524.693 163.396C548.041 149.546 572.263 135.23 602.859 135.23C633.456 135.23 657.617 149.546 681.026 163.396C704.192 177.144 728.19 191.339 758.35 191.339C788.51 191.339 812.509 177.144 835.725 163.396C859.074 149.546 883.295 135.23 913.892 135.23V136.751C883.732 136.751 859.733 150.945 836.517 164.704C813.108 178.584 788.927 192.9 758.35 192.9Z" fill="white" fill-opacity="0.5"/>
<path d="M758.35 182.7C727.774 182.7 703.593 168.384 680.184 154.545C656.977 140.806 632.969 126.592 602.819 126.592C572.669 126.592 548.661 140.786 525.444 154.545C513.029 161.936 500.167 169.52 486.472 174.893L485.924 173.474C499.497 168.151 512.318 160.567 524.693 153.196C548.041 139.346 572.263 125.03 602.859 125.03C633.456 125.03 657.617 139.346 681.026 153.196C704.192 167.005 728.19 181.2 758.35 181.2C788.51 181.2 812.509 167.005 835.725 153.257C859.074 139.407 883.295 125.091 913.892 125.091V126.612C883.732 126.612 859.733 140.806 836.517 154.565C813.108 168.384 788.927 182.7 758.35 182.7Z" fill="white" fill-opacity="0.5"/>
<path d="M758.35 172.5C727.774 172.5 703.593 158.184 680.184 144.334C656.977 130.596 632.969 116.392 602.819 116.392C572.669 116.392 548.661 130.586 525.444 144.334C513.029 151.705 500.167 159.32 486.472 164.693L485.924 163.274C499.497 157.941 512.318 150.367 524.693 142.996C548.041 129.156 572.263 114.84 602.859 114.84C633.456 114.84 657.617 129.156 681.026 142.996C704.233 156.744 728.231 170.949 758.391 170.949C788.551 170.949 812.549 156.755 835.766 142.996C859.114 129.156 883.336 114.84 913.932 114.84V116.361C883.772 116.361 859.774 130.556 836.558 144.304C813.108 158.184 788.927 172.5 758.35 172.5Z" fill="white" fill-opacity="0.5"/>
<path d="M758.35 162.3C727.774 162.3 703.593 147.984 680.184 134.135C656.998 120.366 632.989 106.172 602.839 106.172C572.689 106.172 548.681 120.366 525.464 134.114C513.029 141.506 500.167 149.11 486.472 154.494L485.924 153.074C499.497 147.741 512.318 140.157 524.693 132.796C548.041 118.957 572.263 104.641 602.859 104.641C633.456 104.641 657.617 118.957 681.026 132.796C704.233 146.535 728.231 160.749 758.391 160.749C788.551 160.749 812.549 146.555 835.766 132.796C859.114 118.957 883.336 104.641 913.932 104.641V106.172C883.772 106.172 859.774 120.366 836.558 134.114C813.108 147.984 788.927 162.3 758.35 162.3Z" fill="white" fill-opacity="0.5"/>
<path d="M758.35 152.101C727.774 152.101 703.593 137.785 680.184 123.935C656.998 110.227 632.989 96.0327 602.839 96.0327C572.689 96.0327 548.681 110.227 525.464 123.975C513.029 131.296 500.167 138.91 486.472 144.284L485.924 142.874C499.497 137.541 512.318 129.957 524.693 122.597C548.041 108.757 572.263 94.4409 602.859 94.4409C633.456 94.4409 657.617 108.757 681.026 122.597C704.233 136.335 728.231 150.55 758.391 150.55C788.551 150.55 812.549 136.355 835.766 122.597C859.114 108.757 883.336 94.4409 913.932 94.4409V96.0327C883.772 96.0327 859.774 110.227 836.558 123.975C813.108 137.785 788.927 152.101 758.35 152.101Z" fill="white" fill-opacity="0.5"/>
<path d="M758.35 141.891C727.774 141.891 703.593 127.585 680.184 113.736C656.977 99.9974 632.969 85.7827 602.819 85.7827C572.669 85.7827 548.661 99.9771 525.444 113.736C513.029 121.096 500.167 128.711 486.472 134.084L485.924 132.675C499.497 127.342 512.318 119.758 524.693 112.397C548.041 98.5476 572.263 84.2314 602.859 84.2314C633.456 84.2314 657.617 98.5476 681.026 112.397C704.233 126.135 728.231 140.34 758.391 140.34C788.551 140.34 812.549 126.146 835.766 112.397C859.114 98.5476 883.336 84.2314 913.932 84.2314V85.7523C883.772 85.7523 859.774 99.9467 836.558 113.705C813.108 127.585 788.927 141.891 758.35 141.891Z" fill="white" fill-opacity="0.5"/>
<path d="M758.35 131.691C727.774 131.691 703.593 117.375 680.184 103.536C656.977 89.7976 632.969 75.5829 602.819 75.5829C572.669 75.5829 548.661 89.7773 525.444 103.536C513.029 110.897 500.167 118.511 486.472 123.885L485.924 122.465C499.497 117.142 512.318 109.558 524.693 102.187C548.041 88.3376 572.263 74.0215 602.859 74.0215C633.456 74.0215 657.617 88.3376 681.026 102.187C704.233 115.926 728.231 130.13 758.391 130.13C788.551 130.13 812.549 115.936 835.766 102.187C859.114 88.3376 883.336 74.0215 913.932 74.0215V75.5423C883.772 75.5423 859.774 89.7368 836.558 103.495C813.108 117.375 788.927 131.691 758.35 131.691Z" fill="white" fill-opacity="0.5"/>
<path d="M758.35 121.492C727.774 121.492 703.593 107.176 680.184 93.3361C656.977 79.5877 632.969 65.3832 602.819 65.3832C572.669 65.3832 548.661 79.5776 525.444 93.3361C513.029 100.697 500.167 108.311 486.472 113.685L485.924 112.255C499.497 106.932 512.318 99.3484 524.693 91.9775C548.041 78.1379 572.263 63.8218 602.859 63.8218C633.456 63.8218 657.617 78.1379 681.026 91.9876C704.233 105.726 728.231 119.93 758.391 119.93C788.551 119.93 812.549 105.736 835.766 91.9876C859.114 78.1379 883.336 63.8218 913.932 63.8218V65.3426C883.772 65.3426 859.774 79.5371 836.558 93.2955C813.108 107.186 788.927 121.492 758.35 121.492Z" fill="white" fill-opacity="0.5"/>
<path d="M758.35 111.292C727.774 111.292 703.593 96.9757 680.184 83.1259C656.977 69.3878 632.969 55.1832 602.819 55.1832C572.669 55.1832 548.661 69.3776 525.444 83.1259C513.029 90.4969 500.167 98.1112 486.472 103.485L485.924 102.116C499.497 96.783 512.318 89.2093 524.693 81.8383C548.041 67.9987 572.263 53.6826 602.859 53.6826C633.456 53.6826 657.617 67.9987 681.026 81.8383C704.233 95.5866 728.231 109.791 758.391 109.791C788.551 109.791 812.549 95.5968 835.766 81.8383C859.114 67.9987 883.336 53.6826 913.932 53.6826V55.2035C883.772 55.2035 859.774 69.3979 836.558 83.1462C813.108 96.9757 788.927 111.292 758.35 111.292Z" fill="white" fill-opacity="0.5"/>
<path d="M758.35 101.102C727.774 101.102 703.593 86.786 680.184 72.9363C656.977 59.1981 632.969 44.9935 602.819 44.9935C572.669 44.9935 548.661 59.188 525.444 72.9363C513.029 80.287 500.167 87.9216 486.472 93.2749L485.924 91.8656C499.497 86.5325 512.318 78.9487 524.693 71.5878C548.041 57.7482 572.263 43.4321 602.859 43.4321C633.456 43.4321 657.617 57.7482 681.026 71.5878C704.233 85.326 728.231 99.5407 758.391 99.5407C788.551 99.5407 812.549 85.3463 835.766 71.5878C859.114 57.7482 883.336 43.4321 913.932 43.4321V44.953C883.772 44.953 859.774 59.1474 836.558 72.8957C813.108 86.7759 788.927 101.102 758.35 101.102Z" fill="white" fill-opacity="0.5"/>
<path d="M758.35 90.8923C727.774 90.8923 703.593 76.5762 680.184 62.7264C656.977 48.9883 632.969 34.7837 602.819 34.7837C572.669 34.7837 548.661 48.9781 525.444 62.7264C513.029 70.0873 500.167 77.7016 486.472 83.0752L485.924 81.6659C499.497 76.3328 512.318 68.7489 524.693 61.3881C548.041 47.5485 572.263 33.2324 602.859 33.2324C633.456 33.2324 657.617 47.5485 681.026 61.3881C704.233 75.1263 728.231 89.341 758.391 89.341C788.551 89.341 812.549 75.1466 835.766 61.3881C859.114 47.5485 883.336 33.2324 913.932 33.2324V34.7533C883.772 34.7533 859.774 48.9477 836.558 62.696C813.108 76.5762 788.927 90.8923 758.35 90.8923Z" fill="white" fill-opacity="0.5"/>
<path d="M758.35 80.6828C727.774 80.6828 703.593 66.3667 680.184 52.5271C656.977 38.7889 632.969 24.5742 602.819 24.5742C572.669 24.5742 548.661 38.7686 525.444 52.5271C513.029 59.8879 500.167 67.5023 486.472 72.8759L485.924 71.4666C499.497 66.1335 512.318 58.5496 524.693 51.1888C548.041 37.3391 572.263 23.0229 602.859 23.0229C633.456 23.0229 657.617 37.3391 681.026 51.1888C704.233 64.927 728.231 79.1316 758.391 79.1316C788.551 79.1316 812.549 64.9371 835.766 51.1888C859.114 37.3391 883.336 23.0229 913.932 23.0229V24.5438C883.772 24.5438 859.774 38.7382 836.558 52.4967C813.108 66.3667 788.927 80.6828 758.35 80.6828Z" fill="white" fill-opacity="0.5"/>
<path d="M758.35 70.483C727.774 70.483 703.593 56.1669 680.184 42.3273C656.977 28.5891 632.969 14.3744 602.819 14.3744C572.669 14.3744 548.681 28.5891 525.464 42.2969C513.029 49.6881 500.167 57.3024 486.472 62.676L485.924 61.2566C499.497 55.9337 512.318 48.3498 524.693 40.9788C548.041 27.1291 572.263 12.813 602.859 12.813C633.456 12.813 657.617 27.1291 681.026 40.9788C704.233 54.717 728.231 68.9216 758.391 68.9216C788.551 68.9216 812.549 54.7272 835.766 40.9788C859.114 27.1291 883.336 12.813 913.932 12.813V14.3338C883.772 14.3338 859.774 28.5283 836.558 42.2867C813.108 56.1669 788.927 70.483 758.35 70.483Z" fill="white" fill-opacity="0.5"/>
<path d="M758.35 60.2832C727.774 60.2832 703.593 45.9671 680.184 32.1276C656.998 18.3792 632.989 4.17464 602.839 4.17464C572.689 4.17464 548.681 18.3792 525.464 32.158C513.029 39.4884 500.167 47.1027 486.472 52.4357L485.924 51.0163C499.497 45.6934 512.318 38.1095 524.693 30.7385C548.082 16.9496 572.263 2.65381 602.839 2.65381C633.416 2.65381 657.596 16.9699 681.006 30.8196C704.212 44.5578 728.21 58.7624 758.371 58.7624C788.531 58.7624 812.529 44.568 835.745 30.8196C859.094 16.9699 883.315 2.65381 913.912 2.65381V4.17464C883.752 4.17464 859.754 18.3691 836.537 32.1276C813.107 45.9671 788.927 60.2832 758.35 60.2832Z" fill="white" fill-opacity="0.5"/>
<path d="M758.35 50.0834C727.774 50.0834 703.593 35.7673 680.184 21.9176C656.998 8.1794 632.989 -6.02518 602.839 -6.02518C572.689 -6.02518 548.681 8.16926 525.464 21.9176C513.029 29.2886 500.167 36.9029 486.472 42.2968L485.924 40.8773C499.497 35.5443 512.318 27.9705 524.693 20.5995C548.041 6.75996 572.263 -7.55615 602.859 -7.55615C633.456 -7.55615 657.617 6.75996 681.026 20.5995C704.233 34.3479 728.231 48.5525 758.391 48.5525C788.551 48.5525 812.549 34.358 835.766 20.5995C859.114 6.75996 883.336 -7.55615 913.932 -7.55615V-6.03532C883.772 -6.03532 859.774 8.15913 836.558 21.9075C813.108 35.7673 788.927 50.0834 758.35 50.0834Z" fill="white" fill-opacity="0.5"/>
<path d="M758.35 39.884C727.774 39.884 703.593 25.5679 680.184 11.7181C656.998 -2.02005 632.989 -16.2246 602.839 -16.2246C572.689 -16.2246 548.681 -2.02005 525.464 11.7181C513.029 19.079 500.167 26.6933 486.472 32.0669L485.924 30.6576C499.497 25.3245 512.318 17.7406 524.693 10.3798C548.041 -3.45977 572.263 -17.7759 602.859 -17.7759C633.456 -17.7759 657.617 -3.45977 681.026 10.3798C704.233 24.118 728.231 38.3327 758.391 38.3327C788.551 38.3327 812.549 24.1383 835.766 10.3798C859.114 -3.45977 883.336 -17.7759 913.932 -17.7759V-16.255C883.772 -16.255 859.774 -2.0606 836.558 11.6877C813.108 25.5679 788.927 39.884 758.35 39.884Z" fill="white" fill-opacity="0.5"/>
<path d="M758.35 29.684C727.774 29.684 703.593 15.3578 680.184 1.5182C667.738 -5.86292 654.845 -13.4671 641.171 -18.8306L641.72 -20.25C655.515 -14.8662 668.459 -7.20125 680.975 0.210279C704.192 13.9079 728.19 28.1632 758.35 28.1632C788.51 28.1632 812.509 13.9688 835.725 0.210279C848.242 -7.20125 861.185 -14.8662 875.032 -20.25L875.59 -18.8306C861.835 -13.4671 848.963 -5.86292 836.456 1.5182C813.108 15.3679 788.927 29.684 758.35 29.684Z" fill="white" fill-opacity="0.5"/>
<path d="M486.472 21.8669L485.924 20.4576C499.497 15.1246 512.318 7.5407 524.693 0.179865C537.068 -7.18097 550.183 -14.8662 563.949 -20.25L564.507 -18.8306C550.823 -13.4671 537.93 -5.86292 525.464 1.5182C512.998 8.89931 500.167 16.4933 486.472 21.8669Z" fill="white" fill-opacity="0.5"/>
<path d="M758.35 19.4741C727.774 19.4741 703.593 5.15802 680.184 -8.68156C674.428 -12.0984 668.469 -15.6166 662.51 -18.8204L663.241 -20.1588C669.22 -16.8941 675.189 -13.3556 680.965 -9.93878C704.192 3.769 728.19 17.9634 758.35 17.9634C788.51 17.9634 812.509 3.769 835.725 -9.98947C841.491 -13.4063 847.46 -16.9448 853.439 -20.2095L854.17 -18.8711C848.211 -15.6166 842.263 -12.0882 836.497 -8.73225C813.107 5.15803 788.927 19.4741 758.35 19.4741Z" fill="white" fill-opacity="0.5"/>
<path d="M486.472 11.6672L485.924 10.2478C499.497 4.92486 512.318 -2.65903 524.683 -10.03C530.459 -13.4468 536.428 -16.9853 542.407 -20.25L543.138 -18.9117C537.179 -15.6571 531.22 -12.1287 525.464 -8.77278C513.029 -1.30042 500.167 6.29361 486.472 11.6672Z" fill="white" fill-opacity="0.5"/>
<path d="M758.35 9.27464C727.774 9.27464 703.593 -5.04147 680.184 -18.881L680.965 -20.189C704.172 -6.45077 728.17 7.75381 758.33 7.75381C788.49 7.75381 812.488 -6.44063 835.695 -20.189L836.476 -18.881C813.108 -5.04147 788.927 9.27464 758.35 9.27464Z" fill="white" fill-opacity="0.5"/>
<path d="M486.472 1.46773L485.924 0.0482845C499.487 -5.27463 512.318 -12.8484 524.673 -20.2295L525.464 -18.9317C513.019 -11.51 500.157 -3.90588 486.472 1.46773Z" fill="white" fill-opacity="0.5"/>
</g>
</g>
<rect x="1236" width="315" height="275" rx="40" fill="#03FD55"/>
<rect x="1143" y="22.3301" width="255" height="278.325" rx="82" transform="rotate(-14.1482 1143 22.3301)" fill="#03FD55"/>
<defs>
<linearGradient id="paint0_linear_1048_1504" x1="0" y1="144" x2="1204" y2="144" gradientUnits="userSpaceOnUse">
<stop stop-color="#DDFFBB"/>
<stop offset="1" stop-color="#03FD55" stop-opacity="0"/>
</linearGradient>
<clipPath id="clip0_1048_1504">
<path d="M1294 40C1294 17.9086 1276.09 0 1254 0H0V274H1254C1276.09 274 1294 256.091 1294 234V40Z" fill="white"/>
</clipPath>
<clipPath id="clip1_1048_1504">
<rect width="401" height="292" fill="white" transform="matrix(-1 0 0 1 491 -2)"/>
</clipPath>
<clipPath id="clip2_1048_1504">
<rect width="401" height="292" fill="white" transform="matrix(-1 0 0 1 1294 -2)"/>
</clipPath>
<clipPath id="clip3_1048_1504">
<rect width="402" height="292" fill="white" transform="translate(491 -2)"/>
</clipPath>
</defs>
</svg>
